{"title":"Khoobsurat (2014) HINDI DvDScr Ac3 - TeXTX","uid":11057435,"size":1318518817,"categoryP":"video","categoryS":"movies","magnet":"?xt=urn:btih:f2e732f7542eb6cdd7ab27ab74ee9e2b3d99048f&amp;dn=Khoobsurat+%282014%29+HINDI+DvDScr+Ac3+-+TeXTX&amp;tr=udp%3A%2F%2Ftracker.openbittorrent.com%3A80&amp;tr=udp%3A%2F%2Fopen.demonii.com%3A1337&amp;tr=udp%3A%2F%2Ftracker.coppersurfer.tk%3A6969&amp;tr=udp%3A%2F%2Fexodus.desync.com%3A6969","seeders":0,"leechers":0,"uploader":"TeX","files":9,"time":1411131964,"description":"[mediainfo]General\nComplete name : /home/sbx1/downloads/Khoobsurat (2014) Untouched DvDScr - Ntsc - Ac3 - TeXTX/VTS_01_1.VOB\nFormat : MPEG-PS\nFile size : 1 024 MiB\nDuration : 1h 44mn\nOverall bit rate mode : Variable\nOverall bit rate : 1 376 Kbps\n\nVideo\nID : 224 (0xE0)\nFormat : MPEG Video\nFormat version : Version 2\nFormat profile : Main@Main\nFormat settings, BVOP : Yes\nFormat settings, Matrix : Default\nDuration : 1h 44mn\nBit rate mode : Variable\nBit rate : 1 221 Kbps\nMaximum bit rate : 9 672 Kbps\nWidth : 704 pixels\nHeight : 576 pixels\nDisplay aspect ratio : 4:3\nFrame rate : 25.000 fps\nStandard : PAL\nColor space : YUV\nChroma subsampling : 4:2:0\nBit depth : 8 bits\nScan type : Progressive\nCompression mode : Lossy\nBits/(Pixel*Frame) : 0.120\nStream size : 908 MiB (89%)\n\nAudio\nID : 192 (0xC0)\nFormat : MPEG Audio\nFormat version : Version 1\nFormat profile : Layer 2\nDuration : 1h 44mn\nBit rate mode : Constant\nBit rate : 128 Kbps\nChannel(s) : 2 channels\nSampling rate : 48.0 KHz\nCompression mode : Lossy\nStream size : 95.2 MiB (9%)\n\nMenu\n[/mediainfo]\n\n[URL=http://someimage.com/wPFyYBY][IMG]http://t1.someimage.com/wPFyYBY.jpg[/IMG][/URL]\n[URL=http://someimage.com/3XP6jsl][IMG]http://t1.someimage.com/3XP6jsl.jpg[/IMG][/URL]\n[URL=http://someimage.com/DCfPfzx][IMG]http://t1.someimage.com/DCfPfzx.jpg[/IMG][/URL]","torrent":{"xt":"urn:btih:f2e732f7542eb6cdd7ab27ab74ee9e2b3d99048f","amp;dn":"Khoobsurat+%282014%29+HINDI+DvDScr+Ac3+-+TeXTX","amp;tr":["udp%3A%2F%2Ftracker.openbittorrent.com%3A80","udp%3A%2F%2Fopen.demonii.com%3A1337","udp%3A%2F%2Ftracker.coppersurfer.tk%3A6969","udp%3A%2F%2Fexodus.desync.com%3A6969"],"infoHash":"f2e732f7542eb6cdd7ab27ab74ee9e2b3d99048f","infoHashBuffer":{"type":"Buffer","data":[242,231,50,247,84,46,182,205,215,171,39,171,116,238,158,43,61,153,4,143]},"announce":[],"urlList":[]}}